<svg xmlns="http://www.w3.org/2000/svg" width="1200" height="720" viewBox="0 0 1200 720">
  <rect width="1200" height="720" fill="#f8fafc"/>
  <text x="40" y="48" fill="#0f172a" font-size="26" font-family="Inter, Arial, sans-serif">Infrastructure Architecture</text>

  <rect x="40" y="80" width="1120" height="600" rx="18" fill="#ffffff" stroke="#cbd5f5" stroke-width="2"/>
  <text x="70" y="115" fill="#1e293b" font-size="16" font-family="Inter, Arial, sans-serif">OCI Region</text>

  <rect x="70" y="135" width="1060" height="520" rx="16" fill="#f1f5f9" stroke="#94a3b8" stroke-width="2"/>
  <text x="95" y="165" fill="#334155" font-size="14" font-family="Inter, Arial, sans-serif">VPC / VCN</text>

  <rect x="100" y="185" width="510" height="430" rx="14" fill="#ffffff" stroke="#a5b4fc" stroke-width="2"/>
  <text x="120" y="215" fill="#1e293b" font-size="14" font-family="Inter, Arial, sans-serif">Public Subnet</text>

  <rect x="140" y="240" width="200" height="90" rx="10" fill="#fff7ed" stroke="#fb923c" stroke-width="2"/>
  <text x="240" y="295" fill="#9a3412" font-size="13" text-anchor="middle" font-family="Inter, Arial, sans-serif">Ingress / LB</text>

  <rect x="370" y="240" width="200" height="90" rx="10" fill="#ecfeff" stroke="#22d3ee" stroke-width="2"/>
  <text x="470" y="290" fill="#155e75" font-size="13" text-anchor="middle" font-family="Inter, Arial, sans-serif">Frontend</text>
  <text x="470" y="308" fill="#155e75" font-size="11" text-anchor="middle" font-family="Inter, Arial, sans-serif">React + Nginx</text>

  <rect x="140" y="360" width="430" height="120" rx="10" fill="#f5f3ff" stroke="#8b5cf6" stroke-width="2"/>
  <text x="355" y="420" fill="#4c1d95" font-size="13" text-anchor="middle" font-family="Inter, Arial, sans-serif">Monitoring</text>
  <text x="355" y="440" fill="#4c1d95" font-size="11" text-anchor="middle" font-family="Inter, Arial, sans-serif">Prometheus + Grafana</text>

  <rect x="140" y="500" width="430" height="90" rx="10" fill="#eef2ff" stroke="#6366f1" stroke-width="2"/>
  <text x="355" y="552" fill="#312e81" font-size="12" text-anchor="middle" font-family="Inter, Arial, sans-serif">K8s Namespaces</text>
  <text x="355" y="570" fill="#312e81" font-size="11" text-anchor="middle" font-family="Inter, Arial, sans-serif">dev / staging / prod</text>

  <rect x="630" y="185" width="470" height="430" rx="14" fill="#ffffff" stroke="#a5b4fc" stroke-width="2"/>
  <text x="650" y="215" fill="#1e293b" font-size="14" font-family="Inter, Arial, sans-serif">Private Subnet</text>

  <rect x="670" y="240" width="200" height="90" rx="10" fill="#eff6ff" stroke="#60a5fa" stroke-width="2"/>
  <text x="770" y="290" fill="#1e3a8a" font-size="13" text-anchor="middle" font-family="Inter, Arial, sans-serif">Backend API</text>
  <text x="770" y="308" fill="#1e3a8a" font-size="11" text-anchor="middle" font-family="Inter, Arial, sans-serif">Node.js + Express</text>

  <rect x="900" y="240" width="170" height="90" rx="10" fill="#fef2f2" stroke="#f87171" stroke-width="2"/>
  <text x="985" y="290" fill="#7f1d1d" font-size="13" text-anchor="middle" font-family="Inter, Arial, sans-serif">PostgreSQL</text>
  <text x="985" y="308" fill="#7f1d1d" font-size="11" text-anchor="middle" font-family="Inter, Arial, sans-serif">StatefulSet + PVC</text>

  <rect x="670" y="360" width="400" height="120" rx="10" fill="#ecfccb" stroke="#84cc16" stroke-width="2"/>
  <text x="870" y="420" fill="#365314" font-size="13" text-anchor="middle" font-family="Inter, Arial, sans-serif">Kubernetes (OKE)</text>
  <text x="870" y="440" fill="#365314" font-size="11" text-anchor="middle" font-family="Inter, Arial, sans-serif">Worker Nodes + Services</text>

  <rect x="160" y="625" width="380" height="40" rx="8" fill="#e2e8f0" stroke="#94a3b8" stroke-width="1.5"/>
  <text x="350" y="650" fill="#334155" font-size="12" text-anchor="middle" font-family="Inter, Arial, sans-serif">CI/CD: GitHub Actions → GHCR → Deploy</text>

  <rect x="640" y="625" width="360" height="40" rx="8" fill="#e2e8f0" stroke="#94a3b8" stroke-width="1.5"/>
  <text x="820" y="650" fill="#334155" font-size="12" text-anchor="middle" font-family="Inter, Arial, sans-serif">Terraform: Network + OKE + Monitoring</text>

  <line x1="340" y1="285" x2="370" y2="285" stroke="#64748b" stroke-width="2"/>
  <line x1="570" y1="285" x2="630" y2="285" stroke="#64748b" stroke-width="2"/>
  <line x1="870" y1="285" x2="900" y2="285" stroke="#64748b" stroke-width="2"/>
  <line x1="770" y1="330" x2="770" y2="360" stroke="#64748b" stroke-width="2"/>
  <line x1="985" y1="330" x2="985" y2="360" stroke="#64748b" stroke-width="2"/>
  <line x1="355" y1="330" x2="355" y2="360" stroke="#64748b" stroke-width="2"/>
</svg>
